<svg xmlns="http://www.w3.org/2000/svg" xmlns:xlink="http://www.w3.org/1999/xlink" width="640" zoomAndPan="magnify" viewBox="0 0 480 204.749996" height="273" preserveAspectRatio="xMidYMid meet" version="1.0"><defs><filter x="0%" y="0%" width="100%" height="100%" id="869ce9c3e9"><feColorMatrix values="0 0 0 0 1 0 0 0 0 1 0 0 0 0 1 0 0 0 1 0" color-interpolation-filters="sRGB"/></filter><g/><mask id="88b26dadd6"><g filter="url(#869ce9c3e9)"><rect x="-48" width="576" fill="#000000" y="-20.475" height="245.699995" fill-opacity="0.25"/></g></mask><clipPath id="231d3dc8fb"><path d="M 1 0.300781 L 453.648438 0.300781 L 453.648438 132.617188 L 1 132.617188 Z M 1 0.300781 " clip-rule="nonzero"/></clipPath><clipPath id="45c5f7337d"><rect x="0" width="454" y="0" height="133"/></clipPath><clipPath id="4d8a3d1ede"><path d="M 0.292969 115 L 475 115 L 475 160 L 0.292969 160 Z M 0.292969 115 " clip-rule="nonzero"/></clipPath><mask id="63413df14f"><g filter="url(#869ce9c3e9)"><rect x="-48" width="576" fill="#000000" y="-20.475" height="245.699995" fill-opacity="0.25"/></g></mask><clipPath id="29a8cda343"><path d="M 1 0.0625 L 17.316406 0.0625 L 17.316406 17 L 1 17 Z M 1 0.0625 " clip-rule="nonzero"/></clipPath><clipPath id="086fcdcbaa"><rect x="0" width="18" y="0" height="18"/></clipPath></defs><g mask="url(#88b26dadd6)"><g transform="matrix(1, 0, 0, 1, 10, 16)"><g clip-path="url(#45c5f7337d)"><g clip-path="url(#231d3dc8fb)"><path fill="#fcfc03" d="M 1.277344 0.675781 L 432.199219 0.675781 L 453.28125 21.757812 L 453.28125 111.402344 L 432.199219 132.515625 L 22.402344 132.515625 L 1.277344 111.402344 Z M 1.277344 0.675781 " fill-opacity="1" fill-rule="evenodd"/></g></g></g></g><g clip-path="url(#4d8a3d1ede)"><path fill="#fcfc03" d="M 474.277344 115.777344 L 474.277344 136.335938 L 474.082031 136.820312 L 451.8125 159.078125 L 22.75 159.078125 L 0.488281 136.820312 L 0.292969 136.335938 L 0.292969 115.777344 L 1.675781 115.777344 L 1.675781 136.019531 L 23.339844 157.695312 L 451.222656 157.695312 L 472.898438 136.019531 L 472.898438 115.777344 Z M 474.277344 115.777344 " fill-opacity="1" fill-rule="nonzero"/></g><path fill="#fcfc03" d="M 11.277344 0.0742188 L 87.648438 0.0742188 L 104.210938 16.675781 L 11.277344 16.675781 Z M 11.277344 0.0742188 " fill-opacity="1" fill-rule="evenodd"/><path fill="#fcfc03" d="M 290.824219 158.878906 L 291.8125 157.886719 L 320.722656 186.796875 L 319.734375 187.789062 Z M 290.824219 158.878906 " fill-opacity="1" fill-rule="nonzero"/><path fill="#fcfc03" d="M 320.246094 186.597656 L 448.851562 186.597656 L 448.851562 187.980469 L 320.246094 187.980469 Z M 320.246094 186.597656 " fill-opacity="1" fill-rule="nonzero"/><path fill="#fcfc03" d="M 463.28125 172.125 C 463.863281 172.125 464.441406 172.15625 465.019531 172.222656 C 465.597656 172.285156 466.171875 172.382812 466.738281 172.511719 C 467.304688 172.644531 467.859375 172.804688 468.40625 173 C 468.957031 173.195312 469.488281 173.417969 470.011719 173.675781 C 470.535156 173.929688 471.039062 174.214844 471.527344 174.527344 C 472.019531 174.839844 472.488281 175.179688 472.9375 175.546875 C 473.390625 175.914062 473.816406 176.308594 474.222656 176.722656 C 474.628906 177.140625 475.007812 177.578125 475.363281 178.039062 C 475.71875 178.5 476.046875 178.976562 476.347656 179.476562 C 476.644531 179.972656 476.917969 180.484375 477.160156 181.015625 C 477.398438 181.542969 477.609375 182.082031 477.789062 182.636719 C 477.96875 183.1875 478.117188 183.75 478.230469 184.320312 C 478.347656 184.890625 478.429688 185.464844 478.476562 186.042969 C 478.527344 186.621094 478.542969 187.203125 478.523438 187.78125 C 478.507812 188.363281 478.457031 188.941406 478.375 189.515625 C 478.289062 190.089844 478.171875 190.660156 478.023438 191.222656 C 477.875 191.785156 477.695312 192.335938 477.484375 192.875 C 477.269531 193.417969 477.027344 193.945312 476.753906 194.457031 C 476.484375 194.972656 476.183594 195.464844 475.851562 195.945312 C 475.523438 196.425781 475.167969 196.882812 474.785156 197.320312 C 474.402344 197.757812 473.996094 198.171875 473.566406 198.5625 C 473.136719 198.957031 472.6875 199.320312 472.214844 199.660156 C 471.746094 200 471.253906 200.3125 470.75 200.597656 C 470.242188 200.878906 469.71875 201.132812 469.183594 201.355469 C 468.648438 201.582031 468.097656 201.773438 467.539062 201.933594 C 466.980469 202.09375 466.417969 202.222656 465.84375 202.320312 C 465.269531 202.414062 464.695312 202.476562 464.113281 202.507812 C 463.53125 202.539062 462.953125 202.535156 462.371094 202.496094 C 461.792969 202.460938 461.214844 202.390625 460.644531 202.289062 C 460.074219 202.1875 459.507812 202.050781 458.953125 201.882812 C 458.394531 201.714844 457.851562 201.519531 457.316406 201.289062 C 456.78125 201.058594 456.265625 200.796875 455.761719 200.507812 C 455.257812 200.21875 454.769531 199.902344 454.304688 199.558594 C 453.835938 199.210938 453.390625 198.839844 452.964844 198.445312 C 452.539062 198.046875 452.136719 197.628906 451.761719 197.1875 C 451.382812 196.746094 451.035156 196.28125 450.710938 195.800781 C 450.386719 195.316406 450.089844 194.816406 449.824219 194.300781 C 449.558594 193.785156 449.320312 193.253906 449.117188 192.710938 C 448.910156 192.167969 448.734375 191.613281 448.59375 191.050781 C 448.449219 190.488281 448.339844 189.917969 448.265625 189.34375 C 448.1875 188.765625 448.144531 188.1875 448.132812 187.605469 C 448.121094 187.027344 448.144531 186.445312 448.199219 185.867188 C 448.257812 185.289062 448.34375 184.714844 448.464844 184.148438 C 448.589844 183.578125 448.742188 183.019531 448.925781 182.46875 C 449.113281 181.917969 449.328125 181.378906 449.578125 180.855469 C 449.824219 180.328125 450.101562 179.820312 450.40625 179.324219 C 450.714844 178.832031 451.046875 178.355469 451.40625 177.898438 C 451.769531 177.445312 452.152344 177.011719 452.5625 176.597656 C 453.976562 175.164062 455.613281 174.058594 457.472656 173.28125 C 459.332031 172.507812 461.269531 172.121094 463.28125 172.125 Z M 473.003906 177.546875 C 472.605469 177.148438 472.183594 176.773438 471.742188 176.429688 C 471.296875 176.082031 470.832031 175.765625 470.347656 175.472656 C 469.867188 175.183594 469.367188 174.925781 468.851562 174.699219 C 468.335938 174.46875 467.808594 174.273438 467.269531 174.109375 C 466.730469 173.945312 466.183594 173.816406 465.625 173.71875 C 465.070312 173.625 464.511719 173.5625 463.949219 173.535156 C 463.386719 173.507812 462.824219 173.515625 462.261719 173.554688 C 461.699219 173.597656 461.144531 173.671875 460.589844 173.785156 C 460.039062 173.894531 459.492188 174.039062 458.957031 174.214844 C 458.421875 174.390625 457.902344 174.601562 457.390625 174.839844 C 456.882812 175.082031 456.390625 175.355469 455.914062 175.65625 C 455.4375 175.957031 454.980469 176.285156 454.546875 176.644531 C 454.109375 177.003906 453.699219 177.386719 453.308594 177.792969 C 452.921875 178.203125 452.558594 178.632812 452.222656 179.085938 C 451.886719 179.539062 451.582031 180.007812 451.304688 180.5 C 451.027344 180.988281 450.78125 181.496094 450.566406 182.015625 C 450.347656 182.539062 450.167969 183.070312 450.015625 183.613281 C 449.867188 184.15625 449.75 184.707031 449.667969 185.261719 C 449.585938 185.820312 449.535156 186.382812 449.523438 186.945312 C 449.507812 187.507812 449.53125 188.070312 449.585938 188.632812 C 449.640625 189.191406 449.730469 189.746094 449.855469 190.296875 C 449.976562 190.847656 450.132812 191.386719 450.324219 191.917969 C 450.515625 192.449219 450.738281 192.964844 450.988281 193.46875 C 451.242188 193.972656 451.527344 194.457031 451.839844 194.925781 C 452.152344 195.394531 452.492188 195.84375 452.863281 196.269531 C 453.230469 196.695312 453.625 197.097656 454.042969 197.476562 C 454.457031 197.855469 454.898438 198.207031 455.359375 198.53125 C 455.820312 198.855469 456.296875 199.148438 456.796875 199.414062 C 457.292969 199.679688 457.804688 199.914062 458.332031 200.117188 C 458.855469 200.320312 459.390625 200.488281 459.9375 200.625 C 460.484375 200.761719 461.039062 200.867188 461.597656 200.933594 C 462.15625 201.003906 462.71875 201.039062 463.28125 201.039062 C 464.644531 201.039062 465.972656 200.839844 467.277344 200.445312 C 468.578125 200.046875 469.796875 199.472656 470.925781 198.714844 C 472.058594 197.960938 473.054688 197.054688 473.917969 196.003906 C 474.78125 194.953125 475.472656 193.796875 475.992188 192.539062 C 476.511719 191.28125 476.839844 189.976562 476.972656 188.621094 C 477.105469 187.269531 477.039062 185.925781 476.773438 184.589844 C 476.507812 183.253906 476.054688 181.988281 475.410156 180.789062 C 474.769531 179.589844 473.96875 178.507812 473.003906 177.546875 Z M 473.003906 177.546875 " fill-opacity="1" fill-rule="nonzero"/><g mask="url(#63413df14f)"><g transform="matrix(1, 0, 0, 1, 454, 179)"><g clip-path="url(#086fcdcbaa)"><g clip-path="url(#29a8cda343)"><path fill="#fcfc03" d="M 9.28125 16.183594 C 9.800781 16.183594 10.316406 16.132812 10.824219 16.03125 C 11.332031 15.933594 11.824219 15.78125 12.304688 15.582031 C 12.785156 15.386719 13.238281 15.140625 13.667969 14.855469 C 14.101562 14.566406 14.5 14.238281 14.867188 13.871094 C 15.234375 13.503906 15.558594 13.105469 15.847656 12.675781 C 16.136719 12.242188 16.378906 11.789062 16.578125 11.308594 C 16.777344 10.832031 16.925781 10.335938 17.027344 9.828125 C 17.128906 9.320312 17.179688 8.804688 17.179688 8.289062 C 17.179688 7.769531 17.128906 7.257812 17.027344 6.746094 C 16.925781 6.238281 16.777344 5.746094 16.578125 5.265625 C 16.378906 4.789062 16.136719 4.332031 15.847656 3.902344 C 15.558594 3.46875 15.234375 3.070312 14.867188 2.703125 C 14.5 2.335938 14.101562 2.011719 13.667969 1.722656 C 13.238281 1.433594 12.785156 1.191406 12.304688 0.992188 C 11.824219 0.792969 11.332031 0.644531 10.824219 0.542969 C 10.316406 0.441406 9.800781 0.390625 9.28125 0.390625 C 8.765625 0.390625 8.25 0.441406 7.742188 0.542969 C 7.234375 0.644531 6.738281 0.792969 6.261719 0.992188 C 5.78125 1.191406 5.328125 1.433594 4.894531 1.722656 C 4.464844 2.011719 4.066406 2.335938 3.699219 2.703125 C 3.332031 3.070312 3.003906 3.46875 2.71875 3.902344 C 2.429688 4.332031 2.183594 4.789062 1.988281 5.265625 C 1.789062 5.746094 1.640625 6.238281 1.539062 6.746094 C 1.4375 7.257812 1.386719 7.769531 1.386719 8.289062 C 1.386719 8.804688 1.4375 9.320312 1.539062 9.828125 C 1.640625 10.335938 1.789062 10.832031 1.988281 11.308594 C 2.183594 11.789062 2.429688 12.242188 2.71875 12.675781 C 3.003906 13.105469 3.332031 13.503906 3.699219 13.871094 C 4.066406 14.238281 4.464844 14.566406 4.894531 14.855469 C 5.328125 15.140625 5.78125 15.386719 6.261719 15.582031 C 6.738281 15.78125 7.234375 15.933594 7.742188 16.03125 C 8.25 16.132812 8.765625 16.183594 9.28125 16.183594 Z M 9.28125 16.183594 " fill-opacity="1" fill-rule="evenodd"/></g></g></g></g><path fill="#fcfc03" d="M 99.550781 0.0742188 L 111.257812 0.0742188 L 127.582031 16.675781 L 115.917969 16.675781 Z M 99.550781 0.0742188 " fill-opacity="1" fill-rule="evenodd"/><path fill="#fcfc03" d="M 121.808594 0.0742188 L 133.515625 0.0742188 L 149.851562 16.675781 L 138.183594 16.675781 Z M 121.808594 0.0742188 " fill-opacity="1" fill-rule="evenodd"/><g fill="#fcfc03" fill-opacity="1"><g transform="translate(19.564078, 106.906101)"><g><path d="M 6.078125 -53.171875 L 35.9375 -53.171875 L 42.921875 -46.1875 L 42.921875 -31.453125 L 39.28125 -27.796875 L 45.28125 -21.796875 L 45.28125 -7.4375 L 37.828125 0 L 6.078125 0 Z M 33.5 -29.171875 L 37.296875 -32.96875 L 37.296875 -44.4375 L 33.5 -48.171875 L 11.703125 -48.171875 L 11.703125 -29.171875 Z M 35.25 -5.015625 L 39.65625 -9.34375 L 39.65625 -19.984375 L 35.25 -24.3125 L 11.703125 -24.3125 L 11.703125 -5.015625 Z M 35.25 -5.015625 "/></g></g></g><g fill="#fcfc03" fill-opacity="1"><g transform="translate(68.635533, 106.906101)"><g><path d="M 6.078125 -53.171875 L 11.84375 -53.171875 L 11.84375 -5.09375 L 38.890625 -5.09375 L 38.890625 0 L 6.078125 0 Z M 6.078125 -53.171875 "/></g></g></g><g fill="#fcfc03" fill-opacity="1"><g transform="translate(109.427124, 106.906101)"><g><path d="M 20.4375 -53.171875 L 26.671875 -53.171875 L 45.578125 0 L 39.578125 0 L 34.640625 -14.359375 L 12.453125 -14.359375 L 7.515625 0 L 1.515625 0 Z M 32.96875 -19.375 L 23.625 -46.5 L 23.46875 -46.5 L 14.203125 -19.375 Z M 32.96875 -19.375 "/></g></g></g><g fill="#fcfc03" fill-opacity="1"><g transform="translate(156.523566, 106.906101)"><g><path d="M 4.9375 -6.984375 L 4.9375 -11.84375 L 10.640625 -11.84375 L 10.640625 -8.890625 L 14.28125 -5.171875 L 32.515625 -5.171875 L 36.3125 -9.046875 L 36.3125 -20.96875 L 32.515625 -24.6875 L 12.078125 -24.6875 L 5.09375 -31.671875 L 5.09375 -46.1875 L 12.078125 -53.171875 L 34.40625 -53.171875 L 41.40625 -46.1875 L 41.40625 -41.25 L 35.78125 -41.25 L 35.78125 -44.296875 L 31.984375 -48.015625 L 14.59375 -48.015625 L 10.78125 -44.296875 L 10.78125 -33.578125 L 14.59375 -29.859375 L 35.015625 -29.859375 L 42.015625 -22.859375 L 42.015625 -7.140625 L 34.875 0 L 11.921875 0 Z M 4.9375 -6.984375 "/></g></g></g><g fill="#fcfc03" fill-opacity="1"><g transform="translate(203.088267, 106.906101)"><g><path d="M 18.390625 -48.09375 L 2.28125 -48.09375 L 2.28125 -53.171875 L 40.265625 -53.171875 L 40.265625 -48.09375 L 24.15625 -48.09375 L 24.15625 0 L 18.390625 0 Z M 18.390625 -48.09375 "/></g></g></g><g fill="#fcfc03" fill-opacity="1"><g transform="translate(245.626999, 106.906101)"><g/></g></g><g fill="#fcfc03" fill-opacity="1"><g transform="translate(264.16174, 106.906101)"><g><path d="M 5.3125 -8.359375 L 5.3125 -44.828125 L 13.671875 -53.171875 L 36.46875 -53.171875 L 44.515625 -45.125 L 44.515625 -40.265625 L 38.75 -40.265625 L 38.75 -43.21875 L 33.875 -48.015625 L 16.25 -48.015625 L 11.09375 -42.921875 L 11.09375 -10.25 L 16.25 -5.171875 L 33.875 -5.171875 L 38.75 -9.953125 L 38.75 -12.921875 L 44.515625 -12.921875 L 44.515625 -8.046875 L 36.46875 0 L 13.671875 0 Z M 5.3125 -8.359375 "/></g></g></g><g fill="#fcfc03" fill-opacity="1"><g transform="translate(312.093759, 106.906101)"><g><path d="M 6.078125 -53.171875 L 11.84375 -53.171875 L 11.84375 -29.09375 L 39.359375 -29.09375 L 39.359375 -53.171875 L 45.125 -53.171875 L 45.125 0 L 39.359375 0 L 39.359375 -23.9375 L 11.84375 -23.9375 L 11.84375 0 L 6.078125 0 Z M 6.078125 -53.171875 "/></g></g></g><g fill="#fcfc03" fill-opacity="1"><g transform="translate(363.292145, 106.906101)"><g><path d="M 20.4375 -53.171875 L 26.671875 -53.171875 L 45.578125 0 L 39.578125 0 L 34.640625 -14.359375 L 12.453125 -14.359375 L 7.515625 0 L 1.515625 0 Z M 32.96875 -19.375 L 23.625 -46.5 L 23.46875 -46.5 L 14.203125 -19.375 Z M 32.96875 -19.375 "/></g></g></g><g fill="#fcfc03" fill-opacity="1"><g transform="translate(410.388598, 106.906101)"><g><path d="M 18.390625 -48.09375 L 2.28125 -48.09375 L 2.28125 -53.171875 L 40.265625 -53.171875 L 40.265625 -48.09375 L 24.15625 -48.09375 L 24.15625 0 L 18.390625 0 Z M 18.390625 -48.09375 "/></g></g></g></svg>